<?xml version="1.0" encoding="utf-8"?>
<!-- Generator: Adobe Illustrator 21.0.2, SVG Export Plug-In . SVG Version: 6.00 Build 0)  -->
<svg version="1.1" id="Layer_1" xmlns="http://www.w3.org/2000/svg" xmlns:xlink="http://www.w3.org/1999/xlink" x="0px" y="0px"
	 viewBox="0 0 512 512" style="enable-background:new 0 0 512 512;" xml:space="preserve">
<style type="text/css">
	.st0{fill:#5E05E8;}
</style>
<path class="st0" d="M504,256c0,137-111,248-248,248S8,393,8,256S119,8,256,8S504,119,504,256z M362.3,220.7
	c4.9-33-20.2-50.7-54.5-62.6l11.1-44.7l-27.2-6.8l-10.9,43.5c-7.2-1.8-14.5-3.5-21.8-5.1l10.9-43.8l-27.2-6.8l-11.2,44.7
	c-5.9-1.3-11.7-2.7-17.4-4.1l0-0.1l-37.5-9.4l-7.2,29.1c0,0,20.2,4.6,19.8,4.9c11,2.8,13,10,12.7,15.8l-12.7,50.9
	c0.8,0.2,1.7,0.5,2.8,0.9c-0.9-0.2-1.9-0.5-2.9-0.7l-17.8,71.3c-1.3,3.3-4.8,8.4-12.5,6.5c0.3,0.4-19.8-4.9-19.8-4.9l-13.5,31.1
	l35.4,8.8c6.6,1.7,13,3.4,19.4,5l-11.3,45.2l27.2,6.8l11.2-44.7c7.2,2,14.4,3.8,21.7,5.6l-11.1,44.5l27.2,6.8l11.3-45.1
	c46.4,8.8,81.3,5.2,96-36.7c11.8-33.8-0.6-53.3-25-66C345.4,256.5,358.8,244.8,362.3,220.7L362.3,220.7z M300.2,307.8
	c-8.4,33.8-65.3,15.5-83.8,10.9l14.9-59.9C249.8,263.5,309,272.6,300.2,307.8z M308.6,220.2c-7.7,30.7-55,15.1-70.4,11.3l13.5-54.3
	C267.1,181,316.6,188.1,308.6,220.2z"/>
</svg>
